<svg width="67" height="52" viewBox="0 0 67 52" fill="none" xmlns="http://www.w3.org/2000/svg">
<path d="M10.2511 0.750244C10.2493 0.750244 10.2473 0.750244 10.2455 0.750244C9.61941 0.750244 9.03054 0.994308 8.58587 1.43786C8.1363 1.88631 7.88867 2.48343 7.88867 3.11912V38.6399C7.88867 39.9425 8.95252 41.0048 10.2604 41.0081C15.7743 41.0213 25.0122 42.1705 31.385 48.8396V11.666C31.385 11.2245 31.2723 10.8097 31.0594 10.4665C25.8288 2.043 15.7774 0.763172 10.2511 0.750244Z" fill="#3787FF"/>
<path d="M58.5596 38.6399V3.11887C58.5596 2.48319 58.312 1.88607 57.8624 1.43761C57.4177 0.994064 56.8284 0.75 56.203 0.75C56.201 0.75 56.199 0.75 56.1972 0.75C50.6711 0.76315 40.6197 2.04298 35.3889 10.4664C35.176 10.8097 35.0635 11.2245 35.0635 11.666V48.8393C41.4363 42.1703 50.6742 41.021 56.1881 41.0079C57.4958 41.0045 58.5596 39.9423 58.5596 38.6399Z" fill="#3787FF"/>
<path d="M63.9537 8.94177H62.2361V38.6398C62.2361 41.9656 59.5265 44.6775 56.1956 44.6857C51.5187 44.6968 43.8072 45.6114 38.3457 50.7804C47.7913 48.4677 57.7487 49.9711 63.4235 51.2643C64.132 51.4257 64.8642 51.2589 65.4319 50.8065C65.9976 50.3551 66.3221 49.6804 66.3221 48.9563V11.3102C66.3224 10.0043 65.2596 8.94177 63.9537 8.94177Z" fill="#3787FF"/>
<path d="M4.21101 38.6398V8.94177H2.49343C1.18774 8.94177 0.125 10.0043 0.125 11.3102V48.9556C0.125 49.68 0.449527 50.3545 1.01522 50.8058C1.58248 51.258 2.314 51.4254 3.02368 51.2636C8.69845 49.9702 18.656 48.467 28.1012 50.7797C22.64 45.6109 14.9284 44.6966 10.2515 44.6855C6.92091 44.6775 4.21101 41.9656 4.21101 38.6398Z" fill="#3787FF"/>
</svg>
