<svg width="26" height="30" viewBox="0 0 26 30" fill="none" xmlns="http://www.w3.org/2000/svg">
<path d="M20.9082 4.46483C20.7956 4.46511 20.6849 4.43513 20.5878 4.37802C17.9144 2.94557 15.603 2.33786 12.832 2.33786C10.0749 2.33786 7.45693 3.01791 5.0757 4.37802C4.73896 4.56853 4.32392 4.43589 4.12874 4.08622C4.04163 3.91745 4.02198 3.72182 4.07378 3.53907C4.12558 3.35632 4.24496 3.20016 4.40765 3.10232C6.97585 1.64453 9.87953 0.882321 12.832 0.890941C15.7976 0.890941 18.3878 1.57099 21.2287 3.09026C21.3944 3.18147 21.5179 3.33406 21.5725 3.51529C21.6271 3.69653 21.6086 3.89198 21.5208 4.05969C21.4681 4.17877 21.3824 4.28022 21.2738 4.35203C21.1652 4.42383 21.0383 4.46298 20.9082 4.46483ZM0.981878 12.0612C0.837197 12.0601 0.696318 12.0147 0.578279 11.9309C0.424705 11.8167 0.321422 11.6473 0.290184 11.4584C0.258947 11.2694 0.302194 11.0757 0.410816 10.9181C1.78968 8.8924 3.54323 7.30079 5.6329 6.18666C10.005 3.84507 15.603 3.82819 19.989 6.17219C22.0781 7.28632 23.8322 8.86346 25.2111 10.8747C25.3192 11.0325 25.3622 11.226 25.331 11.4148C25.2998 11.6036 25.1968 11.773 25.0436 11.8875C24.9693 11.9431 24.8843 11.9829 24.794 12.0043C24.7038 12.0257 24.61 12.0284 24.5187 12.0121C24.4273 11.9958 24.3403 11.961 24.2629 11.9097C24.1856 11.8584 24.1195 11.7917 24.0689 11.7139C22.816 9.89078 21.2287 8.45833 19.3486 7.45995C15.3524 5.33298 10.2418 5.33298 6.25939 7.47442C4.36548 8.48726 2.77819 9.93418 1.52523 11.7549C1.4712 11.8507 1.39201 11.9299 1.29623 11.9839C1.20046 12.0379 1.09175 12.0646 0.981878 12.0612ZM9.68456 29.5279C9.59253 29.5288 9.50139 29.5098 9.41731 29.4724C9.33323 29.4349 9.25817 29.3798 9.19722 29.3108C7.98583 28.0496 7.32922 27.2369 6.39854 25.4886C5.43472 23.7088 4.93654 21.5385 4.93654 19.2089C4.93654 14.9116 8.47316 11.41 12.8182 11.41C17.1632 11.41 20.7022 14.9116 20.7022 19.2089C20.7049 19.3021 20.689 19.3949 20.6552 19.4819C20.6215 19.5688 20.5706 19.648 20.5057 19.7149C20.4408 19.7818 20.3632 19.835 20.2774 19.8713C20.1915 19.9076 20.0993 19.9264 20.0061 19.9264C19.913 19.9264 19.8208 19.9076 19.7349 19.8713C19.6491 19.835 19.5715 19.7818 19.5066 19.7149C19.4417 19.648 19.3908 19.5688 19.3571 19.4819C19.3233 19.3949 19.3074 19.3021 19.3101 19.2089C19.3101 15.7074 16.3994 12.857 12.8212 12.857C9.24301 12.857 6.32926 15.7074 6.32926 19.2089C6.32926 21.2925 6.77443 23.2169 7.62379 24.7796C8.51532 26.4435 9.12976 27.1525 10.2002 28.2811C10.3271 28.4216 10.3974 28.6042 10.3974 28.7936C10.3974 28.9829 10.3271 29.1656 10.2002 29.306C10.0635 29.444 9.87866 29.5236 9.68456 29.5279ZM19.6691 26.8511C18.0119 26.8511 16.55 26.417 15.3524 25.5633C14.3321 24.8476 13.4986 23.897 12.9221 22.7916C12.3455 21.6862 12.0427 20.4583 12.0393 19.2113C12.0354 19.1174 12.0505 19.0236 12.0837 18.9356C12.117 18.8477 12.1676 18.7673 12.2327 18.6995C12.2977 18.6316 12.3758 18.5776 12.4622 18.5407C12.5487 18.5038 12.6417 18.4848 12.7356 18.4848C12.8296 18.4848 12.9226 18.5038 13.009 18.5407C13.0955 18.5776 13.1736 18.6316 13.2386 18.6995C13.3037 18.7673 13.3543 18.8477 13.3876 18.9356C13.4208 19.0236 13.4359 19.1174 13.432 19.2113C13.4343 20.2242 13.6812 21.2215 14.1515 22.1183C14.6217 23.0152 15.3016 23.785 16.1331 24.3624C17.1216 25.0569 18.2776 25.3873 19.6703 25.3873C20.1554 25.3786 20.6389 25.3303 21.116 25.2426C21.4919 25.1702 21.854 25.4307 21.9232 25.8358C21.9585 26.0228 21.9183 26.2161 21.8114 26.3735C21.7044 26.5308 21.5395 26.6392 21.3528 26.675C20.7981 26.7847 20.2345 26.8428 19.6691 26.8487V26.8511ZM16.8698 29.8293C16.8087 29.8268 16.748 29.8171 16.6891 29.8004C14.4747 29.1637 13.0266 28.31 11.5086 26.7618C9.55866 24.7506 8.48701 22.0738 8.48701 19.2089C8.48701 16.8649 10.4086 14.955 12.7754 14.955C15.1422 14.955 17.0644 16.8649 17.0644 19.2089C17.0644 20.7571 18.3595 22.016 19.9607 22.016C21.5618 22.016 22.8569 20.7571 22.8569 19.2089C22.8569 13.754 18.3312 9.32648 12.7615 9.32648C8.80688 9.32648 5.18654 11.6126 3.55768 15.1576C3.01553 16.3296 2.73603 17.7041 2.73603 19.2089C2.73603 20.3375 2.83301 22.1172 3.66852 24.4323C3.80828 24.8085 3.62696 25.2281 3.26492 25.3583C3.17888 25.3911 3.08711 25.4062 2.99511 25.4026C2.90312 25.399 2.8128 25.3768 2.72958 25.3374C2.64637 25.298 2.57197 25.2421 2.51086 25.1732C2.44976 25.1043 2.4032 25.0237 2.37399 24.9363C1.70213 23.1016 1.35795 21.163 1.35716 19.2089C1.35716 17.4726 1.67763 15.8931 2.30412 14.5209C4.15645 10.4816 8.26413 7.86509 12.7615 7.86509C19.0974 7.86509 24.2497 12.9438 24.2497 19.1945C24.2497 21.5385 22.328 23.4484 19.9607 23.4484C17.5933 23.4484 15.6717 21.5385 15.6717 19.1945C15.6723 17.6463 14.3771 16.385 12.776 16.385C11.1749 16.385 9.87973 17.6438 9.87973 19.1921C9.87973 21.6639 10.799 23.9814 12.4838 25.7177C13.8091 27.0778 15.0741 27.8277 17.0373 28.3945C17.4132 28.4957 17.6222 28.9009 17.5246 29.2771C17.4942 29.4298 17.4128 29.5676 17.2939 29.668C17.1749 29.7683 17.0254 29.8252 16.8698 29.8293Z" fill="#060302"/>
</svg>
