<svg width="37" height="43" viewBox="0 0 37 43" fill="none" xmlns="http://www.w3.org/2000/svg">
<path d="M27.3972 14.3693C32.3544 14.3693 36.3736 18.3031 36.3736 23.155V33.5448C36.3736 38.3967 32.3544 42.3305 27.3972 42.3305H9.60242C4.64518 42.3305 0.625977 38.3967 0.625977 33.5448V23.155C0.625977 18.3031 4.64518 14.3693 9.60242 14.3693H27.3972ZM18.4891 24.1986C17.4635 24.1986 16.6302 25.0142 16.6302 26.018V30.6608C16.6302 31.6856 17.4635 32.5012 18.4891 32.5012C19.5361 32.5012 20.3695 31.6856 20.3695 30.6608V26.018C20.3695 25.0142 19.5361 24.1986 18.4891 24.1986Z" fill="#3787FF"/>
<path opacity="0.4" d="M30.1131 11.5957V14.6909C29.3652 14.4818 28.5746 14.3772 27.7627 14.3772H26.3738V11.5957C26.3738 7.3503 22.8482 3.89959 18.5106 3.89959C14.173 3.89959 10.6474 7.32938 10.626 11.5539V14.3772H9.2585C8.42517 14.3772 7.63458 14.4818 6.88672 14.7118V11.5957C6.90809 5.3217 12.1004 0.239746 18.4678 0.239746C24.9208 0.239746 30.1131 5.3217 30.1131 11.5957Z" fill="#3787FF"/>
</svg>
