<svg width="225" height="52" viewBox="0 0 225 52" fill="none" xmlns="http://www.w3.org/2000/svg">
<path d="M82.7026 27.75V8.80756H94.7445V11.1348H85.571V17.034H93.9327V19.3071H85.571V25.4228H94.7445V27.75H82.7026ZM103.358 28.0747C102.059 28.0747 100.913 27.768 99.9209 27.1547C98.9287 26.5413 98.153 25.7024 97.5937 24.638C97.0345 23.5736 96.7548 22.3649 96.7548 21.0119C96.7548 19.6589 97.0345 18.4592 97.5937 17.4128C98.153 16.3485 98.9287 15.5186 99.9209 14.9233C100.931 14.3099 102.086 14.0032 103.385 14.0032C104.449 14.0032 105.378 14.2107 106.172 14.6256C106.984 15.0405 107.615 15.6268 108.066 16.3845V8.26635H110.935V27.75H108.364L108.066 25.6663C107.633 26.2977 107.038 26.857 106.28 27.3441C105.522 27.8312 104.548 28.0747 103.358 28.0747ZM103.872 25.5851C105.099 25.5851 106.1 25.1612 106.876 24.3133C107.669 23.4654 108.066 22.374 108.066 21.039C108.066 19.6859 107.669 18.5945 106.876 17.7646C106.1 16.9167 105.099 16.4928 103.872 16.4928C102.645 16.4928 101.635 16.9167 100.841 17.7646C100.047 18.5945 99.6503 19.6859 99.6503 21.039C99.6503 21.9229 99.8307 22.7077 100.192 23.3932C100.552 24.0788 101.048 24.62 101.68 25.0169C102.329 25.3957 103.06 25.5851 103.872 25.5851ZM118.691 28.0747C117.068 28.0747 115.787 27.5696 114.849 26.5593C113.929 25.5491 113.469 24.0427 113.469 22.0402V14.3279H116.337V21.7425C116.337 24.3404 117.402 25.6393 119.53 25.6393C120.595 25.6393 121.47 25.2604 122.155 24.5027C122.841 23.745 123.184 22.6626 123.184 21.2554V14.3279H126.052V27.75H123.508L123.292 25.3957C122.877 26.2256 122.263 26.8841 121.452 27.3712C120.658 27.8402 119.738 28.0747 118.691 28.0747ZM135.248 28.0747C133.931 28.0747 132.75 27.7771 131.703 27.1817C130.675 26.5864 129.863 25.7656 129.268 24.7192C128.691 23.6548 128.402 22.4281 128.402 21.039C128.402 19.6499 128.691 18.4321 129.268 17.3858C129.863 16.3214 130.675 15.4915 131.703 14.8962C132.75 14.3009 133.931 14.0032 135.248 14.0032C136.908 14.0032 138.297 14.4362 139.416 15.3021C140.552 16.1681 141.283 17.3407 141.608 18.82H138.604C138.423 18.0803 138.027 17.503 137.413 17.0881C136.8 16.6732 136.078 16.4657 135.248 16.4657C134.545 16.4657 133.895 16.6461 133.3 17.0069C132.705 17.3497 132.227 17.8639 131.866 18.5494C131.505 19.2169 131.325 20.0467 131.325 21.039C131.325 22.0312 131.505 22.8701 131.866 23.5556C132.227 24.2231 132.705 24.7373 133.3 25.0981C133.895 25.4589 134.545 25.6393 135.248 25.6393C136.078 25.6393 136.8 25.4318 137.413 25.0169C138.027 24.6019 138.423 24.0156 138.604 23.2579H141.608C141.301 24.7012 140.579 25.8648 139.443 26.7488C138.306 27.6327 136.908 28.0747 135.248 28.0747ZM150.185 28.0747C148.904 28.0747 147.749 27.7861 146.721 27.2088C145.711 26.6135 144.908 25.7926 144.313 24.7463C143.717 23.6819 143.42 22.4461 143.42 21.039C143.42 19.6318 143.717 18.4051 144.313 17.3587C144.926 16.2943 145.747 15.4735 146.775 14.8962C147.803 14.3009 148.949 14.0032 150.212 14.0032C151.493 14.0032 152.638 14.3009 153.649 14.8962C154.677 15.4735 155.489 16.2943 156.084 17.3587C156.697 18.4051 157.004 19.6318 157.004 21.039C157.004 22.4461 156.697 23.6819 156.084 24.7463C155.489 25.7926 154.677 26.6135 153.649 27.2088C152.62 27.7861 151.466 28.0747 150.185 28.0747ZM150.185 25.6122C150.87 25.6122 151.502 25.4408 152.079 25.0981C152.674 24.7553 153.152 24.2502 153.513 23.5827C153.874 22.8971 154.054 22.0492 154.054 21.039C154.054 20.0287 153.874 19.1898 153.513 18.5223C153.17 17.8368 152.701 17.3226 152.106 16.9799C151.529 16.6371 150.897 16.4657 150.212 16.4657C149.526 16.4657 148.886 16.6371 148.291 16.9799C147.713 17.3226 147.244 17.8368 146.883 18.5223C146.523 19.1898 146.342 20.0287 146.342 21.039C146.342 22.0492 146.523 22.8971 146.883 23.5827C147.244 24.2502 147.713 24.7553 148.291 25.0981C148.868 25.4408 149.499 25.6122 150.185 25.6122ZM159.294 27.75V14.3279H161.865L162.109 16.8716C162.578 15.9876 163.227 15.2931 164.057 14.788C164.905 14.2648 165.924 14.0032 167.115 14.0032V17.0069H166.33C165.536 17.0069 164.824 17.1422 164.192 17.4128C163.579 17.6654 163.083 18.1074 162.704 18.7388C162.343 19.3522 162.163 20.2091 162.163 21.3096V27.75H159.294ZM173.309 28.0747C172.172 28.0747 171.234 27.8853 170.494 27.5065C169.755 27.1276 169.204 26.6315 168.844 26.0181C168.483 25.3867 168.302 24.7012 168.302 23.9615C168.302 22.6626 168.807 21.6343 169.818 20.8766C170.828 20.1189 172.271 19.7401 174.147 19.7401H177.665V19.4965C177.665 18.4502 177.377 17.6654 176.799 17.1422C176.24 16.6191 175.509 16.3575 174.607 16.3575C173.814 16.3575 173.119 16.5559 172.524 16.9528C171.946 17.3317 171.595 17.8999 171.468 18.6576H168.6C168.69 17.6834 169.015 16.8536 169.574 16.1681C170.151 15.4645 170.873 14.9323 171.739 14.5715C172.623 14.1926 173.588 14.0032 174.634 14.0032C176.511 14.0032 177.963 14.4993 178.991 15.4915C180.02 16.4657 180.534 17.8007 180.534 19.4965V27.75H178.044L177.801 25.4498C177.422 26.1895 176.871 26.8119 176.15 27.317C175.428 27.8222 174.481 28.0747 173.309 28.0747ZM173.877 25.7475C174.653 25.7475 175.302 25.5671 175.825 25.2063C176.366 24.8275 176.781 24.3313 177.07 23.718C177.377 23.1046 177.566 22.4281 177.638 21.6884H174.445C173.309 21.6884 172.497 21.8869 172.01 22.2838C171.541 22.6806 171.306 23.1768 171.306 23.7721C171.306 24.3855 171.532 24.8726 171.983 25.2334C172.452 25.5761 173.083 25.7475 173.877 25.7475Z" fill="#3787FF"/>
<path d="M84.5629 43.8128C83.6581 43.8128 82.8664 43.6127 82.1878 43.2126C81.5092 42.8123 80.9785 42.2599 80.5957 41.5552C80.2129 40.8418 80.0215 40.0196 80.0215 39.0887C80.0215 38.1579 80.2129 37.3401 80.5957 36.6353C80.9785 35.922 81.5092 35.3652 82.1878 34.965C82.8664 34.5648 83.6581 34.3647 84.5629 34.3647C85.4677 34.3647 86.2594 34.5648 86.938 34.965C87.6166 35.3652 88.143 35.922 88.5171 36.6353C88.8999 37.3401 89.0913 38.1579 89.0913 39.0887C89.0913 40.0196 88.8999 40.8418 88.5171 41.5552C88.143 42.2599 87.6166 42.8123 86.938 43.2126C86.2594 43.6127 85.4677 43.8128 84.5629 43.8128ZM84.5629 42.5731C85.1893 42.5731 85.7331 42.4339 86.1942 42.1555C86.664 41.8771 87.0294 41.4769 87.2904 40.9549C87.5514 40.4329 87.6819 39.8108 87.6819 39.0887C87.6819 38.3666 87.5514 37.7446 87.2904 37.2226C87.0294 36.7006 86.664 36.3004 86.1942 36.022C85.7331 35.7436 85.1893 35.6044 84.5629 35.6044C83.9365 35.6044 83.3884 35.7436 82.9186 36.022C82.4488 36.3004 82.0834 36.7006 81.8224 37.2226C81.5701 37.7446 81.444 38.3666 81.444 39.0887C81.444 39.8108 81.5701 40.4329 81.8224 40.9549C82.0834 41.4769 82.4488 41.8771 82.9186 42.1555C83.3884 42.4339 83.9365 42.5731 84.5629 42.5731ZM90.4496 43.6562V37.1835H91.6763L91.7807 38.3188C91.9808 37.9186 92.2722 37.6054 92.655 37.3792C93.0465 37.1443 93.4946 37.0269 93.9992 37.0269C94.7822 37.0269 95.3955 37.2705 95.8392 37.7577C96.2916 38.2448 96.5178 38.9713 96.5178 39.937V43.6562H95.1476V40.0805C95.1476 38.8278 94.6343 38.2014 93.6077 38.2014C93.0944 38.2014 92.6681 38.3841 92.3288 38.7495C91.9982 39.1149 91.8329 39.6368 91.8329 40.3155V43.6562H90.4496ZM98.0165 43.6562V34.2603H99.3998V43.6562H98.0165ZM101.804 35.9568C101.543 35.9568 101.326 35.8784 101.152 35.7218C100.986 35.5566 100.904 35.3521 100.904 35.1085C100.904 34.8649 100.986 34.6648 101.152 34.5082C101.326 34.3429 101.543 34.2603 101.804 34.2603C102.065 34.2603 102.278 34.3429 102.444 34.5082C102.618 34.6648 102.705 34.8649 102.705 35.1085C102.705 35.3521 102.618 35.5566 102.444 35.7218C102.278 35.8784 102.065 35.9568 101.804 35.9568ZM101.112 43.6562V37.1835H102.496V43.6562H101.112ZM104.191 43.6562V37.1835H105.418L105.522 38.3188C105.723 37.9186 106.014 37.6054 106.397 37.3792C106.788 37.1443 107.236 37.0269 107.741 37.0269C108.524 37.0269 109.137 37.2705 109.581 37.7577C110.033 38.2448 110.26 38.9713 110.26 39.937V43.6562H108.889V40.0805C108.889 38.8278 108.376 38.2014 107.349 38.2014C106.836 38.2014 106.41 38.3841 106.071 38.7495C105.74 39.1149 105.575 39.6368 105.575 40.3155V43.6562H104.191ZM114.786 43.8128C114.151 43.8128 113.585 43.6736 113.089 43.3952C112.602 43.1081 112.219 42.7123 111.941 42.2077C111.663 41.7031 111.523 41.1158 111.523 40.446C111.523 39.7674 111.658 39.1714 111.928 38.6581C112.206 38.1448 112.589 37.7446 113.076 37.4575C113.572 37.1704 114.146 37.0269 114.799 37.0269C115.434 37.0269 115.986 37.1704 116.456 37.4575C116.926 37.7359 117.291 38.11 117.552 38.5798C117.813 39.0496 117.944 39.5673 117.944 40.1328C117.944 40.2197 117.94 40.3154 117.931 40.4199C117.931 40.5155 117.927 40.6243 117.918 40.7461H112.881C112.924 41.3725 113.129 41.851 113.494 42.1816C113.868 42.5035 114.299 42.6644 114.786 42.6644C115.177 42.6644 115.504 42.5775 115.765 42.4035C116.034 42.2208 116.234 41.9772 116.365 41.6726H117.748C117.574 42.2817 117.226 42.7906 116.704 43.1995C116.191 43.6084 115.551 43.8128 114.786 43.8128ZM114.786 38.1622C114.325 38.1622 113.916 38.3014 113.559 38.5798C113.202 38.8495 112.985 39.2584 112.907 39.8065H116.561C116.535 39.3019 116.356 38.9017 116.026 38.6059C115.695 38.3101 115.282 38.1622 114.786 38.1622ZM122.406 43.6562V34.2603H123.79V43.6562H122.406ZM128.438 43.8128C127.803 43.8128 127.238 43.6736 126.742 43.3952C126.255 43.1081 125.872 42.7123 125.594 42.2077C125.315 41.7031 125.176 41.1158 125.176 40.446C125.176 39.7674 125.311 39.1714 125.58 38.6581C125.859 38.1448 126.242 37.7446 126.729 37.4575C127.225 37.1704 127.799 37.0269 128.451 37.0269C129.087 37.0269 129.639 37.1704 130.109 37.4575C130.579 37.7359 130.944 38.11 131.205 38.5798C131.466 39.0496 131.597 39.5673 131.597 40.1328C131.597 40.2197 131.592 40.3154 131.583 40.4199C131.583 40.5155 131.579 40.6243 131.57 40.7461H126.533C126.577 41.3725 126.781 41.851 127.146 42.1816C127.521 42.5035 127.951 42.6644 128.438 42.6644C128.83 42.6644 129.156 42.5775 129.417 42.4035C129.687 42.2208 129.887 41.9772 130.017 41.6726H131.401C131.227 42.2817 130.879 42.7906 130.357 43.1995C129.843 43.6084 129.204 43.8128 128.438 43.8128ZM128.438 38.1622C127.977 38.1622 127.568 38.3014 127.212 38.5798C126.855 38.8495 126.638 39.2584 126.559 39.8065H130.213C130.187 39.3019 130.009 38.9017 129.678 38.6059C129.348 38.3101 128.934 38.1622 128.438 38.1622ZM135.094 43.8128C134.546 43.8128 134.093 43.7215 133.737 43.5388C133.38 43.3561 133.114 43.1169 132.94 42.8211C132.766 42.5165 132.679 42.186 132.679 41.8293C132.679 41.2029 132.923 40.707 133.41 40.3416C133.897 39.9762 134.593 39.7935 135.498 39.7935H137.195V39.676C137.195 39.1714 137.056 38.793 136.777 38.5407C136.507 38.2883 136.155 38.1622 135.72 38.1622C135.337 38.1622 135.002 38.2579 134.715 38.4493C134.437 38.632 134.267 38.906 134.206 39.2714H132.823C132.867 38.8017 133.023 38.4015 133.293 38.0708C133.571 37.7316 133.919 37.4749 134.337 37.3009C134.763 37.1182 135.229 37.0269 135.733 37.0269C136.638 37.0269 137.338 37.2661 137.834 37.7446C138.33 38.2144 138.578 38.8582 138.578 39.676V43.6562H137.377L137.26 42.547C137.077 42.9037 136.812 43.2038 136.464 43.4475C136.116 43.691 135.659 43.8128 135.094 43.8128ZM135.368 42.6906C135.742 42.6906 136.055 42.6036 136.307 42.4296C136.568 42.2469 136.768 42.0076 136.908 41.7118C137.056 41.416 137.147 41.0898 137.182 40.7331H135.642C135.094 40.7331 134.702 40.8288 134.467 41.0202C134.241 41.2116 134.128 41.4508 134.128 41.7379C134.128 42.0337 134.237 42.2686 134.454 42.4426C134.68 42.6079 134.985 42.6906 135.368 42.6906ZM140.06 43.6562V37.1835H141.3L141.418 38.4102C141.644 37.9838 141.957 37.6489 142.357 37.4053C142.766 37.153 143.258 37.0269 143.832 37.0269V38.4754H143.453C143.071 38.4754 142.727 38.5407 142.423 38.6711C142.127 38.7929 141.887 39.0061 141.705 39.3106C141.531 39.6064 141.444 40.0196 141.444 40.5504V43.6562H140.06ZM144.887 43.6562V37.1835H146.114L146.219 38.3188C146.419 37.9186 146.71 37.6054 147.093 37.3792C147.484 37.1443 147.932 37.0269 148.437 37.0269C149.22 37.0269 149.833 37.2705 150.277 37.7577C150.729 38.2448 150.956 38.9713 150.956 39.937V43.6562H149.585V40.0805C149.585 38.8278 149.072 38.2014 148.046 38.2014C147.532 38.2014 147.106 38.3841 146.767 38.7495C146.436 39.1149 146.271 39.6368 146.271 40.3155V43.6562H144.887ZM153.237 35.9568C152.976 35.9568 152.759 35.8784 152.585 35.7218C152.42 35.5566 152.337 35.3521 152.337 35.1085C152.337 34.8649 152.42 34.6648 152.585 34.5082C152.759 34.3429 152.976 34.2603 153.237 34.2603C153.498 34.2603 153.712 34.3429 153.877 34.5082C154.051 34.6648 154.138 34.8649 154.138 35.1085C154.138 35.3521 154.051 35.5566 153.877 35.7218C153.712 35.8784 153.498 35.9568 153.237 35.9568ZM152.546 43.6562V37.1835H153.929V43.6562H152.546ZM155.625 43.6562V37.1835H156.851L156.956 38.3188C157.156 37.9186 157.447 37.6054 157.83 37.3792C158.222 37.1443 158.67 37.0269 159.174 37.0269C159.957 37.0269 160.571 37.2705 161.014 37.7577C161.467 38.2448 161.693 38.9713 161.693 39.937V43.6562H160.323V40.0805C160.323 38.8278 159.809 38.2014 158.783 38.2014C158.269 38.2014 157.843 38.3841 157.504 38.7495C157.173 39.1149 157.008 39.6368 157.008 40.3155V43.6562H155.625ZM165.841 41.6726C165.501 41.6726 165.188 41.6335 164.901 41.5552L164.34 42.1033C164.436 42.1642 164.553 42.2164 164.692 42.2599C164.832 42.3034 165.027 42.3426 165.28 42.3774C165.532 42.4122 165.876 42.447 166.311 42.4818C167.172 42.5601 167.794 42.7689 168.177 43.1081C168.559 43.4387 168.751 43.8824 168.751 44.4392C168.751 44.822 168.646 45.1831 168.438 45.5224C168.238 45.8704 167.92 46.1488 167.485 46.3576C167.059 46.5751 166.511 46.6838 165.841 46.6838C164.936 46.6838 164.201 46.5098 163.635 46.1618C163.078 45.8225 162.8 45.3049 162.8 44.6089C162.8 44.3392 162.87 44.0695 163.009 43.7998C163.157 43.5388 163.387 43.2908 163.701 43.0559C163.518 42.9776 163.357 42.895 163.218 42.808C163.087 42.7123 162.97 42.6166 162.865 42.5209V42.2077L163.988 41.0593C163.483 40.6243 163.231 40.0545 163.231 39.3498C163.231 38.9235 163.331 38.5363 163.531 38.1883C163.74 37.8316 164.04 37.5489 164.431 37.3401C164.823 37.1313 165.293 37.0269 165.841 37.0269C166.206 37.0269 166.545 37.0791 166.859 37.1835H169.273V38.0969L168.124 38.1622C168.333 38.5189 168.438 38.9148 168.438 39.3498C168.438 39.7848 168.333 40.1763 168.124 40.5243C167.924 40.8723 167.629 41.1507 167.237 41.3594C166.854 41.5682 166.389 41.6726 165.841 41.6726ZM165.841 40.5895C166.241 40.5895 166.563 40.4851 166.806 40.2763C167.059 40.0588 167.185 39.7543 167.185 39.3628C167.185 38.9626 167.059 38.6581 166.806 38.4493C166.563 38.2405 166.241 38.1361 165.841 38.1361C165.432 38.1361 165.101 38.2405 164.849 38.4493C164.605 38.6581 164.484 38.9626 164.484 39.3628C164.484 39.7543 164.605 40.0588 164.849 40.2763C165.101 40.4851 165.432 40.5895 165.841 40.5895ZM164.105 44.4784C164.105 44.8525 164.27 45.1309 164.601 45.3136C164.932 45.505 165.345 45.6007 165.841 45.6007C166.319 45.6007 166.706 45.4963 167.002 45.2875C167.298 45.0874 167.446 44.8177 167.446 44.4784C167.446 44.2261 167.346 44.0086 167.146 43.8259C166.946 43.6519 166.567 43.5432 166.01 43.4997C165.593 43.4736 165.223 43.4344 164.901 43.3822C164.597 43.5475 164.388 43.7259 164.275 43.9173C164.162 44.1087 164.105 44.2957 164.105 44.4784ZM173.534 46.5273V37.1835H174.773L174.917 38.1883C175.126 37.8838 175.413 37.6141 175.778 37.3792C176.144 37.1443 176.614 37.0269 177.188 37.0269C177.814 37.0269 178.367 37.1748 178.845 37.4705C179.324 37.7663 179.698 38.1709 179.967 38.6842C180.246 39.1975 180.385 39.7804 180.385 40.4329C180.385 41.0854 180.246 41.6683 179.967 42.1816C179.698 42.6862 179.324 43.0864 178.845 43.3822C178.367 43.6693 177.81 43.8128 177.175 43.8128C176.67 43.8128 176.222 43.7128 175.831 43.5127C175.448 43.3126 175.143 43.0298 174.917 42.6644V46.5273H173.534ZM176.94 42.6122C177.531 42.6122 178.019 42.4122 178.401 42.012C178.784 41.6031 178.976 41.0724 178.976 40.4199C178.976 39.9935 178.889 39.6151 178.715 39.2845C178.541 38.9539 178.301 38.6972 177.997 38.5145C177.692 38.3232 177.34 38.2275 176.94 38.2275C176.348 38.2275 175.861 38.4319 175.478 38.8408C175.104 39.2497 174.917 39.776 174.917 40.4199C174.917 41.0724 175.104 41.6031 175.478 42.012C175.861 42.4122 176.348 42.6122 176.94 42.6122ZM181.751 43.6562V34.2603H183.134V43.6562H181.751ZM186.948 43.8128C186.399 43.8128 185.947 43.7215 185.59 43.5388C185.234 43.3561 184.968 43.1169 184.794 42.8211C184.62 42.5165 184.533 42.186 184.533 41.8293C184.533 41.2029 184.777 40.707 185.264 40.3416C185.751 39.9762 186.447 39.7935 187.352 39.7935H189.049V39.676C189.049 39.1714 188.909 38.793 188.631 38.5407C188.361 38.2883 188.009 38.1622 187.574 38.1622C187.191 38.1622 186.856 38.2579 186.569 38.4493C186.291 38.632 186.121 38.906 186.06 39.2714H184.677C184.72 38.8017 184.877 38.4015 185.147 38.0708C185.425 37.7316 185.773 37.4749 186.191 37.3009C186.617 37.1182 187.082 37.0269 187.587 37.0269C188.492 37.0269 189.192 37.2661 189.688 37.7446C190.184 38.2144 190.432 38.8582 190.432 39.676V43.6562H189.231L189.114 42.547C188.931 42.9037 188.666 43.2038 188.318 43.4475C187.97 43.691 187.513 43.8128 186.948 43.8128ZM187.222 42.6906C187.596 42.6906 187.909 42.6036 188.161 42.4296C188.422 42.2469 188.622 42.0076 188.762 41.7118C188.909 41.416 189.001 41.0898 189.036 40.7331H187.496C186.948 40.7331 186.556 40.8288 186.321 41.0202C186.095 41.2116 185.982 41.4508 185.982 41.7379C185.982 42.0337 186.091 42.2686 186.308 42.4426C186.534 42.6079 186.839 42.6906 187.222 42.6906ZM194.501 43.6562C193.866 43.6562 193.362 43.504 192.987 43.1995C192.613 42.8863 192.426 42.3339 192.426 41.5422V38.3449H191.317V37.1835H192.426L192.596 35.5391H193.81V37.1835H195.637V38.3449H193.81V41.5422C193.81 41.8989 193.884 42.1468 194.031 42.286C194.188 42.4165 194.453 42.4818 194.828 42.4818H195.571V43.6562H194.501ZM197.259 43.6562V38.3449H196.332V37.1835H197.259V36.2439C197.259 35.5391 197.433 35.0346 197.781 34.7301C198.137 34.4169 198.638 34.2603 199.281 34.2603H199.96V35.4347H199.49C199.186 35.4347 198.968 35.5 198.838 35.6305C198.707 35.7523 198.642 35.9611 198.642 36.2569V37.1835H200.13V38.3449H198.642V43.6562H197.259ZM204.086 43.8128C203.468 43.8128 202.912 43.6736 202.416 43.3952C201.929 43.1081 201.541 42.7123 201.254 42.2077C200.967 41.6944 200.824 41.0985 200.824 40.4199C200.824 39.7413 200.967 39.1497 201.254 38.6451C201.55 38.1318 201.946 37.7359 202.442 37.4575C202.938 37.1704 203.49 37.0269 204.099 37.0269C204.717 37.0269 205.269 37.1704 205.757 37.4575C206.252 37.7359 206.644 38.1318 206.931 38.6451C207.227 39.1497 207.375 39.7413 207.375 40.4199C207.375 41.0985 207.227 41.6944 206.931 42.2077C206.644 42.7123 206.252 43.1081 205.757 43.3952C205.261 43.6736 204.704 43.8128 204.086 43.8128ZM204.086 42.6253C204.417 42.6253 204.721 42.5427 205 42.3774C205.287 42.2121 205.517 41.9684 205.691 41.6465C205.865 41.316 205.952 40.9071 205.952 40.4199C205.952 39.9326 205.865 39.5281 205.691 39.2062C205.526 38.8756 205.3 38.6277 205.013 38.4623C204.734 38.297 204.43 38.2144 204.099 38.2144C203.769 38.2144 203.46 38.297 203.173 38.4623C202.894 38.6277 202.668 38.8756 202.494 39.2062C202.32 39.5281 202.233 39.9326 202.233 40.4199C202.233 40.9071 202.32 41.316 202.494 41.6465C202.668 41.9684 202.894 42.2121 203.173 42.3774C203.451 42.5427 203.756 42.6253 204.086 42.6253ZM208.74 43.6562V37.1835H209.98L210.097 38.4102C210.324 37.9838 210.637 37.6489 211.037 37.4053C211.446 37.153 211.937 37.0269 212.512 37.0269V38.4754H212.133C211.75 38.4754 211.407 38.5407 211.102 38.6711C210.806 38.7929 210.567 39.0061 210.384 39.3106C210.21 39.6064 210.123 40.0196 210.123 40.5504V43.6562H208.74ZM213.567 43.6562V37.1835H214.794L214.911 38.0969C215.12 37.7664 215.394 37.5054 215.733 37.3139C216.081 37.1226 216.482 37.0269 216.934 37.0269C217.961 37.0269 218.674 37.4314 219.074 38.2405C219.309 37.8664 219.622 37.5706 220.014 37.3531C220.414 37.1356 220.845 37.0269 221.306 37.0269C222.115 37.0269 222.75 37.2705 223.211 37.7577C223.672 38.2448 223.903 38.9713 223.903 39.937V43.6562H222.519V40.0805C222.519 38.8278 222.041 38.2014 221.084 38.2014C220.597 38.2014 220.197 38.3841 219.883 38.7495C219.579 39.1149 219.427 39.6368 219.427 40.3155V43.6562H218.043V40.0805C218.043 38.8278 217.56 38.2014 216.595 38.2014C216.116 38.2014 215.72 38.3841 215.407 38.7495C215.103 39.1149 214.95 39.6368 214.95 40.3155V43.6562H213.567Z" fill="#3787FF"/>
<path d="M10.2511 0.750244C10.2493 0.750244 10.2473 0.750244 10.2455 0.750244C9.61941 0.750244 9.03054 0.994308 8.58587 1.43786C8.1363 1.88631 7.88867 2.48343 7.88867 3.11912V38.6399C7.88867 39.9425 8.95252 41.0048 10.2604 41.0081C15.7743 41.0213 25.0122 42.1705 31.385 48.8396V11.666C31.385 11.2245 31.2723 10.8097 31.0594 10.4665C25.8288 2.043 15.7774 0.763172 10.2511 0.750244Z" fill="#3787FF"/>
<path d="M58.5596 38.6399V3.11887C58.5596 2.48319 58.312 1.88607 57.8624 1.43761C57.4177 0.994064 56.8284 0.75 56.203 0.75C56.201 0.75 56.199 0.75 56.1972 0.75C50.6711 0.76315 40.6197 2.04298 35.3889 10.4664C35.176 10.8097 35.0635 11.2245 35.0635 11.666V48.8393C41.4363 42.1703 50.6742 41.021 56.1881 41.0079C57.4958 41.0045 58.5596 39.9423 58.5596 38.6399Z" fill="#3787FF"/>
<path d="M63.9537 8.94177H62.2361V38.6398C62.2361 41.9656 59.5265 44.6775 56.1956 44.6857C51.5187 44.6968 43.8072 45.6114 38.3457 50.7804C47.7913 48.4677 57.7487 49.9711 63.4235 51.2643C64.132 51.4257 64.8642 51.2589 65.4319 50.8065C65.9976 50.3551 66.3221 49.6804 66.3221 48.9563V11.3102C66.3224 10.0043 65.2596 8.94177 63.9537 8.94177Z" fill="#3787FF"/>
<path d="M4.21101 38.6398V8.94177H2.49343C1.18774 8.94177 0.125 10.0043 0.125 11.3102V48.9556C0.125 49.68 0.449527 50.3545 1.01522 50.8058C1.58248 51.258 2.314 51.4254 3.02368 51.2636C8.69845 49.9702 18.656 48.467 28.1012 50.7797C22.64 45.6109 14.9284 44.6966 10.2515 44.6855C6.92091 44.6775 4.21101 41.9656 4.21101 38.6398Z" fill="#3787FF"/>
</svg>
